<svg width="24" height="20" viewBox="0 0 24 20" fill="none" xmlns="http://www.w3.org/2000/svg">
<path fill-rule="evenodd" clip-rule="evenodd" d="M15.9773 0.443398C16.1596 0.368983 16.3711 0.392421 16.5363 0.503749C16.701 0.615663 16.8 0.801405 16.8 1.00062V15.4006C16.8 15.5998 16.701 15.7856 16.5363 15.8975C16.4355 15.9655 16.3184 16.0006 16.2 16.0006C16.1244 16.0006 16.0488 15.9866 15.9773 15.9579L10.8 13.8869V17.2006C10.8 18.5243 9.72363 19.6006 8.4 19.6006C7.07637 19.6006 6 18.5243 6 17.2006V11.9669L4.08428 11.2006H0.6C0.268359 11.2006 0 10.9323 0 10.6006V5.80063C0 5.46898 0.268359 5.20063 0.6 5.20063H4.08428L15.9773 0.443398ZM7.2 12.4469V17.2006C7.2 17.8622 7.73848 18.4006 8.4 18.4006C9.06152 18.4006 9.6 17.8622 9.6 17.2006V13.4069L7.2 12.4469ZM18.1389 10.8168C18.3498 10.5625 18.7289 10.5274 18.9838 10.7395L22.5838 13.7342C22.8387 13.9457 22.8732 14.3243 22.6611 14.5791C22.5428 14.7215 22.3717 14.7954 22.1994 14.7954C22.0646 14.7954 21.9281 14.7497 21.8162 14.6565L18.2162 11.6618C17.9613 11.4502 17.9268 11.0717 18.1389 10.8168ZM15.6 1.88656L4.8 6.2069V10.1944L15.6 14.5147V1.88656ZM3.6 6.40063H1.2V10.0006H3.6V6.40063ZM23.4 7.60766C23.7316 7.60766 24 7.87602 24 8.20766C24 8.5393 23.7316 8.80766 23.4 8.80766H18.6C18.2684 8.80766 18 8.5393 18 8.20766C18 7.87602 18.2684 7.60766 18.6 7.60766H23.4ZM21.8156 1.7348C22.0699 1.52152 22.449 1.55726 22.6605 1.81098C22.8732 2.06527 22.8387 2.44379 22.5844 2.6559L18.9844 5.66117C18.8725 5.75492 18.7359 5.80063 18.6006 5.80063C18.4283 5.80063 18.2578 5.72738 18.1395 5.585C17.9268 5.3307 17.9613 4.95219 18.2156 4.74008L21.8156 1.7348Z" fill="#EC0000"/>
</svg>
